<svg id="Layer_1" data-name="Layer 1" xmlns="http://www.w3.org/2000/svg" width="707" height="707" viewBox="0 0 707 707"><defs><style>.cls-1{fill:#3b8bef;}.cls-2{fill:#fff;}.cls-3{fill:none;}</style></defs><title>mx-player-logo</title><path class="cls-1" d="M699,375.5c-.06,177-143.28,324.12-325,323.59C191.94,698.56,49.93,549.67,51,373c1.06-175.28,143.4-322.82,325.55-322C556.43,51.68,699.43,198.09,699,375.5ZM275.45,383q0,67.25,0,134.48a38.54,38.54,0,0,0,.14,5.16c.48,3.56,2.89,5.39,6.47,5.2,1.82-.09,3.24-1,4.74-1.89q15.7-9,31.43-17.94L523.81,390.54a31.15,31.15,0,0,0,4.37-2.74,6.1,6.1,0,0,0-.08-9.8,22,22,0,0,0-3.07-1.92L289,241.12a39.05,39.05,0,0,0-5-2.69,5.91,5.91,0,0,0-8.36,4.95,36.94,36.94,0,0,0-.13,5.16Q275.45,315.79,275.45,383Z" transform="translate(-21.5 -21.5)"/><path class="cls-2" d="M275.45,383q0-67.24,0-134.48a36.94,36.94,0,0,1,.13-5.16,5.91,5.91,0,0,1,8.36-4.95,39.05,39.05,0,0,1,5,2.69L525,376.08A22,22,0,0,1,528.1,378a6.1,6.1,0,0,1,.08,9.8,31.15,31.15,0,0,1-4.37,2.74L318.24,508q-15.71,9-31.43,17.94c-1.5.86-2.92,1.8-4.74,1.89-3.58.19-6-1.64-6.47-5.2a38.54,38.54,0,0,1-.14-5.16Q275.45,450.26,275.45,383Z" transform="translate(-21.5 -21.5)"/><rect class="cls-3" width="707" height="707"/></svg>